<?xml version="1.0" standalone="no"?>
<!DOCTYPE svg PUBLIC "-//W3C//DTD SVG 20010904//EN"
 "http://www.w3.org/TR/2001/REC-SVG-20010904/DTD/svg10.dtd">
<svg version="1.0" xmlns="http://www.w3.org/2000/svg"
 width="512.000000pt" height="512.000000pt" viewBox="0 0 512.000000 512.000000"
 preserveAspectRatio="xMidYMid meet">

<g transform="translate(0.000000,512.000000) scale(0.100000,-0.100000)"
fill="#000000" stroke="none">
<path d="M915 5105 c-288 -57 -513 -228 -635 -480 -93 -193 -85 3 -85 -2065 0
-2068 -8 -1872 85 -2065 114 -235 318 -400 587 -471 51 -14 103 -18 208 -18
122 1 151 4 228 27 48 15 116 41 150 58 118 59 3032 1701 3098 1745 169 113
309 316 360 524 19 74 19 327 0 400 -54 214 -197 419 -371 533 -64 41 -2994
1689 -3087 1736 -154 77 -377 109 -538 76z m247 -560 c67 -23 3056 -1707 3106
-1750 23 -20 55 -60 70 -88 24 -46 27 -63 27 -147 0 -84 -3 -101 -27 -147 -15
-28 -47 -68 -70 -88 -34 -29 -2806 -1598 -3053 -1728 -54 -28 -69 -32 -145
-32 -68 0 -94 5 -131 23 -68 34 -121 83 -154 143 l-30 54 -3 1754 c-1 1129 1
1766 8 1790 44 163 242 270 402 216z"/>
</g>
</svg>
